name D:\school\WTK\thesis\model\3dpredictsim\Results\batch_windlass\Pog_s1_tmt_aCst_d00_k800_WL10_ig24.mot
datacolumns 128
datarows 4
range 0.00000000 0.03170032
endheader
time	pelvis_tilt	pelvis_list	pelvis_rotation	pelvis_tx	pelvis_ty	pelvis_tz	hip_flexion_l	hip_adduction_l	hip_rotation_l	hip_flexion_r	hip_adduction_r	hip_rotation_r	knee_angle_l	knee_angle_r	ankle_angle_l	ankle_angle_r	subtalar_angle_l	subtalar_angle_r	tmt_angle_l	tmt_angle_r	mtp_angle_l	mtp_angle_r	lumbar_extension	lumbar_bending	lumbar_rotation	arm_flex_l	arm_add_l	arm_rot_l	arm_flex_r	arm_add_r	arm_rot_r	elbow_flex_l	elbow_flex_r	pro_sup_l	pro_sup_r	glut_med1_l/activation	glut_med2_l/activation	glut_med3_l/activation	glut_min1_l/activation	glut_min2_l/activation	glut_min3_l/activation	semimem_l/activation	semiten_l/activation	bifemlh_l/activation	bifemsh_l/activation	sar_l/activation	add_long_l/activation	add_brev_l/activation	add_mag1_l/activation	add_mag2_l/activation	add_mag3_l/activation	tfl_l/activation	pect_l/activation	grac_l/activation	glut_max1_l/activation	glut_max2_l/activation	glut_max3_l/activation	iliacus_l/activation	psoas_l/activation	quad_fem_l/activation	gem_l/activation	peri_l/activation	rect_fem_l/activation	vas_med_l/activation	vas_int_l/activation	vas_lat_l/activation	med_gas_l/activation	lat_gas_l/activation	soleus_l/activation	tib_post_l/activation	flex_dig_l/activation	flex_hal_l/activation	tib_ant_l/activation	per_brev_l/activation	per_long_l/activation	per_tert_l/activation	ext_dig_l/activation	ext_hal_l/activation	ercspn_l/activation	intobl_l/activation	extobl_l/activation	glut_med1_r/activation	glut_med2_r/activation	glut_med3_r/activation	glut_min1_r/activation	glut_min2_r/activation	glut_min3_r/activation	semimem_r/activation	semiten_r/activation	bifemlh_r/activation	bifemsh_r/activation	sar_r/activation	add_long_r/activation	add_brev_r/activation	add_mag1_r/activation	add_mag2_r/activation	add_mag3_r/activation	tfl_r/activation	pect_r/activation	grac_r/activation	glut_max1_r/activation	glut_max2_r/activation	glut_max3_r/activation	iliacus_r/activation	psoas_r/activation	quad_fem_r/activation	gem_r/activation	peri_r/activation	rect_fem_r/activation	vas_med_r/activation	vas_int_r/activation	vas_lat_r/activation	med_gas_r/activation	lat_gas_r/activation	soleus_r/activation	tib_post_r/activation	flex_dig_r/activation	flex_hal_r/activation	tib_ant_r/activation	per_brev_r/activation	per_long_r/activation	per_tert_r/activation	ext_dig_r/activation	ext_hal_r/activation	ercspn_r/activation	intobl_r/activation	extobl_r/activation	
          0.00000000	         -2.92242896	         -1.42250977	          5.99763326	          0.00000000	          0.85832033	         -0.00188798	        -17.44940709	         -1.47761529	          9.25356944	         31.45410338	          2.70155147	         -0.74388151	        -11.16569175	        -19.69369867	         -2.94170836	         -1.70634411	         13.25664804	         -2.52132255	         -1.62138182	         -0.04302575	         26.51280103	          0.77629240	         -0.94922928	         -0.18065636	         -1.57992006	          4.43315782	        -13.47457015	         15.17005150	        -10.15330822	        -13.79411960	          6.36463093	         35.38066113	         19.92625508	         86.51662706	         86.51662706	          0.30308433	          0.09252141	          0.05000002	          0.31982038	          0.19802973	          0.09515253	          0.05000065	          0.05000008	          0.05000005	          0.06916289	          0.08828395	          0.12354771	          0.06548763	          0.05000035	          0.05000105	          0.05000024	          0.24344034	          0.08348325	          0.05000023	          0.05000089	          0.05000061	          0.05000047	          0.29401657	          0.44802161	          0.05000006	          0.05000016	          0.05000002	          0.17188084	          0.09428617	          0.08074501	          0.06840353	          0.27282544	          0.34891389	          0.23712136	          0.18583347	          0.20835959	          0.26091114	          0.05000000	          0.09495653	          0.16810452	          0.05000005	          0.05000002	          0.05000004	          0.05000000	          0.05000003	          0.05000013	          0.05880551	          0.05000024	          0.05000026	          0.05000027	          0.05000030	          0.05000053	          0.05880570	          0.05880569	          0.09790958	          0.05880589	          0.05000039	          0.11251621	          0.15831455	          0.11440909	          0.13593720	          0.11162643	          0.05000020	          0.05880565	          0.10528898	          0.05000073	          0.06916165	          0.12433957	          0.06311842	          0.05915251	          0.26584786	          0.05028803	          0.05000028	          0.05000001	          0.13235126	          0.14169867	          0.11523044	          0.05880564	          0.05880564	          0.05880563	          0.05000000	          0.05000075	          0.05708176	          0.42689125	          0.28384223	          0.15366031	          0.30943875	          0.59369197	          0.06630938	          0.05000002	          0.10500468	          0.10825540	
          0.01056677	         -2.90984286	         -1.57249281	          6.25115894	          0.01616243	          0.85723371	         -0.00167383	        -17.00720724	         -1.78390625	          8.95786926	         30.85694234	          3.18869717	         -0.47984418	        -13.49699093	        -19.77269538	         -3.92130220	         -1.90757902	         14.29928770	         -3.23374611	         -2.06591883	         -0.06588818	         27.27113489	          0.93575592	         -0.75270731	          0.11129304	         -1.64471740	          4.17291721	        -13.50639873	         15.51761501	        -11.10250163	        -13.78843789	          6.17287415	         36.28577758	         19.77894423	         86.51662706	         86.51662706	          0.25770005	          0.07866713	          0.05000004	          0.27193004	          0.16837649	          0.08090428	          0.06299128	          0.05000007	          0.05000011	          0.05880635	          0.07506423	          0.19308560	          0.21544735	          0.23967155	          0.05000076	          0.13506833	          0.20698726	          0.10053848	          0.05000043	          0.05000026	          0.05000016	          0.05000013	          0.24999010	          0.38093422	          0.05000003	          0.05000063	          0.05880577	          0.14614317	          0.08016777	          0.13233138	          0.13233121	          0.23197216	          0.29666702	          0.20161446	          0.15800650	          0.17715956	          0.22184195	          0.11865831	          0.08073762	          0.14293232	          0.05000005	          0.14272808	          0.05000040	          0.05000001	          0.07306719	          0.06421250	          0.05000001	          0.05000004	          0.05822512	          0.05000003	          0.05000005	          0.05000006	          0.05000006	          0.05000006	          0.08324847	          0.05000029	          0.05880567	          0.09566797	          0.13460837	          0.36272835	          0.26930202	          0.10603539	          0.05000011	          0.05000149	          0.08952296	          0.05000084	          0.05880575	          0.12812930	          0.06916182	          0.06916201	          0.53776401	          0.08134263	          0.05062067	          0.06916207	          0.27875274	          0.27196383	          0.23101305	          0.05000000	          0.05000000	          0.05000000	          0.05000001	          0.05000161	          0.05000006	          0.58663926	          0.24133928	          0.13065099	          0.59484798	          0.65586679	          0.35697403	          0.05000000	          0.08928113	          0.09204508	
          0.02113354	         -2.89295751	         -1.72850334	          6.47835935	          0.03252937	          0.85592836	         -0.00147792	        -16.48378483	         -2.07586267	          8.65333259	         30.06716794	          3.63471741	         -0.13989063	        -15.99041676	        -20.23608883	         -4.88663102	         -1.75033706	         15.24738351	         -4.00796430	         -2.45896337	         -0.20006702	         27.45659885	          1.00277431	         -0.54204923	          0.41493917	         -1.69695956	          3.84758177	        -13.54745515	         15.80043983	        -12.03006513	        -13.79197666	          6.06447501	         37.19329395	         19.58101202	         86.51662706	         86.51662706	          0.31746235	          0.06688742	          0.05000038	          0.23121087	          0.14316357	          0.06878958	          0.08842607	          0.05000073	          0.05880525	          0.05000061	          0.06382404	          0.16417296	          0.37077862	          0.20378286	          0.07229529	          0.11484323	          0.17599276	          0.08548389	          0.05000203	          0.05880623	          0.05880697	          0.06184528	          0.21255623	          0.33371731	          0.05880571	          0.05000292	          0.05000013	          0.12425948	          0.06816339	          0.11251591	          0.11251576	          0.19723631	          0.25224367	          0.17142442	          0.13434639	          0.15063146	          0.18862304	          0.23331204	          0.08961632	          0.13736248	          0.39910507	          0.26159716	          0.18837515	          0.08133421	          0.06212600	          0.05880558	          0.33609176	          0.33413823	          0.37655855	          0.05000134	          0.05000017	          0.37190114	          0.08673455	          0.10291143	          0.10164688	          0.05000001	          0.05000009	          0.08134259	          0.23503927	          0.30841293	          0.22897666	          0.14928486	          0.05000009	          0.06916236	          0.09694001	          0.05000005	          0.05000016	          0.13988230	          0.05880546	          0.05880560	          0.45723845	          0.06916230	          0.18962848	          0.05880565	          0.27514866	          0.28067381	          0.23354392	          0.05880566	          0.05880569	          0.05941487	          0.07648188	          0.05000006	          0.05000021	          0.49879533	          0.20520079	          0.11108713	          0.50577459	          0.55765640	          0.30352041	          0.05000001	          0.07591205	          0.07826211	
          0.03170032	         -2.87457432	         -1.87683977	          6.67673053	          0.04886700	          0.85449359	         -0.00128254	        -15.85101523	         -2.33785081	          8.35252569	         29.08258686	          4.04353246	          0.21118729	        -18.67626372	        -20.49671893	         -5.74125924	         -1.77484931	         16.07115691	         -4.82204845	         -2.62368579	         -0.18849808	         26.58315483	          1.04368305	         -0.33831691	          0.71029081	         -1.73950278	          3.49810585	        -13.59897608	         16.03817743	        -12.88356125	        -13.79923637	          6.05229968	         38.07491847	         19.30490017	         86.51662706	         86.51662706	          0.26992529	          0.05687163	          0.05000003	          0.23682160	          0.12172609	          0.05848901	          0.12044352	          0.05000010	          0.05000012	          0.05000007	          0.06903703	          0.13958994	          0.31525773	          0.17326815	          0.06146977	          0.09764649	          0.20539560	          0.07268384	          0.05000027	          0.05000084	          0.05000125	          0.05258453	          0.18072776	          0.30009336	          0.05000008	          0.05000022	          0.05000009	          0.10565269	          0.05795652	          0.09566763	          0.09566750	          0.16770186	          0.21447234	          0.14575507	          0.11422921	          0.12807575	          0.16037841	          0.22145736	          0.12151930	          0.11679422	          0.33934253	          0.26953715	          0.16016763	          0.12333523	          0.05282317	          0.05000001	          0.42455223	          0.49515088	          0.53821990	          0.27661766	          0.33299927	          0.32158363	          0.07374682	          0.10020572	          0.08642616	          0.06916206	          0.05000023	          0.06916224	          0.19984415	          0.26223078	          0.19710453	          0.16664847	          0.05000007	          0.05880599	          0.08242418	          0.27932039	          0.20314712	          0.16072240	          0.05000001	          0.05000002	          0.38877091	          0.05880598	          0.16123434	          0.05000001	          0.35353838	          0.36340990	          0.30077518	          0.05000003	          0.05000007	          0.05051800	          0.16314973	          0.06515486	          0.05880475	          0.60481796	          0.17447373	          0.09445278	          0.43003919	          0.54123744	          0.32793275	          0.07152573	          0.06916209	          0.06654303	
